<?xml version="1.0" standalone="no"?>
<!DOCTYPE svg PUBLIC "-//W3C//DTD SVG 20010904//EN"
 "http://www.w3.org/TR/2001/REC-SVG-20010904/DTD/svg10.dtd">
<svg version="1.0" xmlns="http://www.w3.org/2000/svg"
 width="1805.000000pt" height="1805.000000pt" viewBox="0 0 1805.000000 1805.000000"
 preserveAspectRatio="xMidYMid meet">
<metadata>
Created by potrace 1.14, written by Peter Selinger 2001-2017
</metadata>
<g transform="translate(0.000000,1805.000000) scale(0.100000,-0.100000)"
fill="#000000" stroke="none">
<path d="M8853 17772 c-24 -2 -43 -7 -43 -11 0 -5 -23 -120 -51 -257 -28 -137
-51 -254 -52 -261 0 -7 -21 -15 -46 -18 -25 -4 -116 -22 -201 -41 -85 -20
-161 -36 -169 -37 -8 -1 -82 93 -168 213 -84 118 -157 216 -162 218 -14 5
-212 -78 -331 -138 -98 -49 -102 -52 -95 -78 6 -26 103 -459 110 -494 3 -11
-17 -30 -63 -60 -37 -24 -76 -50 -87 -59 -11 -9 -58 -47 -104 -84 l-85 -68
-43 24 c-24 13 -129 75 -234 138 l-191 113 -50 -48 c-51 -50 -178 -195 -237
-271 l-32 -42 48 -65 c26 -35 57 -76 68 -91 11 -15 63 -87 117 -159 53 -72 93
-133 89 -136 -9 -6 -100 -159 -131 -220 l-20 -40 348 0 349 0 30 43 c89 123
272 305 405 405 79 59 288 192 302 192 2 0 44 19 93 41 169 79 417 147 608
167 92 9 372 9 458 -1 527 -59 1033 -339 1357 -751 l75 -96 348 0 347 0 -26
52 c-15 29 -49 88 -75 131 -27 43 -49 82 -49 86 0 4 28 46 63 92 34 46 106
144 160 217 l99 133 -29 37 c-50 66 -145 176 -218 250 l-71 74 -140 -82 c-76
-45 -179 -106 -229 -136 -89 -53 -110 -61 -117 -46 -5 12 -177 145 -256 197
-50 33 -71 53 -68 64 13 45 16 58 20 81 3 20 70 324 91 417 4 18 -8 28 -95 72
-91 47 -311 141 -330 141 -6 0 -165 -222 -315 -438 -1 -1 -44 9 -96 23 -52 14
-145 34 -207 45 -63 11 -117 22 -122 25 -5 3 -11 24 -15 48 -9 52 -5 32 -56
280 l-43 207 -56 1 c-118 4 -337 4 -377 1z"/>
<path d="M2719 15313 c-5 -38 -2 -12647 2 -12655 4 -7 2104 -10 6325 -9 3476
0 6324 0 6330 1 7 0 10 1901 9 6332 l-1 6333 -6332 3 c-3483 1 -6332 -1 -6333
-5z m9661 -408 l0 -245 -3317 0 -3318 0 1 238 c1 130 2 240 3 245 1 4 1493 7
3316 7 l3315 0 0 -245z m-9005 -5920 c0 -1829 -2 -3325 -5 -3326 -26 -3 -480
-3 -481 1 -4 13 -5 6636 -2 6643 2 4 113 7 246 7 l242 0 0 -3325z m11840 -5
l0 -3325 -244 0 -244 0 1 3310 c1 1821 1 3318 2 3328 0 16 16 17 243 15 l242
-3 0 -3325z m-2830 -5920 l0 -244 -3323 -1 c-1828 0 -3327 2 -3331 5 -9 7 -9
474 0 480 4 3 1503 5 3331 5 l3323 0 0 -245z"/>
<path d="M16678 11502 c-1 -4 -96 -76 -211 -160 l-207 -153 -82 51 c-45 27
-85 50 -88 50 -3 0 -5 -160 -4 -356 l0 -357 30 -24 c297 -251 532 -603 645
-968 22 -73 56 -216 63 -270 3 -22 10 -69 15 -105 10 -69 7 -418 -3 -485 -16
-98 -39 -214 -53 -265 -35 -131 -110 -326 -155 -405 -6 -11 -25 -45 -41 -75
-97 -177 -277 -396 -451 -548 l-50 -43 0 -359 -1 -359 45 26 c25 14 63 39 86
54 l41 28 129 -95 c71 -52 158 -116 194 -142 36 -25 67 -49 70 -52 3 -3 16
-14 29 -23 23 -16 26 -15 100 45 89 72 111 92 210 185 l74 70 -43 74 c-24 41
-85 144 -136 231 -52 86 -94 159 -94 163 0 4 26 39 58 78 32 40 87 113 122
162 35 50 67 94 72 99 4 6 22 5 45 -2 21 -6 54 -14 73 -17 19 -3 55 -11 80
-16 25 -6 54 -13 65 -15 11 -2 78 -17 148 -33 l128 -28 64 131 c34 72 78 169
96 215 l34 83 -30 24 c-17 13 -48 37 -70 52 -21 15 -89 62 -150 105 -60 43
-121 86 -134 95 -65 47 -63 35 -31 160 16 63 32 130 35 150 3 21 10 65 16 98
l11 62 59 11 c32 7 61 12 64 12 2 1 33 7 67 15 34 8 78 17 98 20 19 3 67 12
105 21 39 8 84 17 100 20 17 2 34 9 39 13 9 9 15 306 8 412 -4 61 -6 62 -87
75 -16 2 -46 8 -65 13 -19 5 -51 12 -70 15 -19 3 -42 8 -50 10 -8 2 -28 7 -45
9 -67 12 -216 44 -220 48 -3 2 -7 22 -10 44 -12 74 -46 239 -66 308 -10 38
-18 71 -16 72 3 3 132 94 304 216 73 51 132 98 133 104 1 28 -164 391 -190
418 -5 5 -43 1 -87 -9 -43 -10 -85 -19 -93 -20 -8 -2 -37 -8 -65 -15 -27 -6
-59 -13 -70 -16 -11 -2 -66 -14 -122 -26 -57 -12 -104 -19 -106 -17 -1 2 -27
40 -56 84 -30 44 -80 112 -112 152 -79 97 -85 108 -72 125 13 16 263 438 263
444 0 13 -167 166 -268 247 -79 63 -106 77 -114 59z"/>
<path d="M1290 11434 c-103 -84 -144 -119 -224 -195 l-80 -76 52 -87 c29 -48
52 -92 52 -97 0 -5 5 -9 10 -9 6 0 10 -4 10 -9 0 -4 32 -62 71 -127 39 -66 73
-124 76 -131 3 -6 -24 -48 -60 -91 -36 -44 -93 -121 -128 -171 -50 -73 -67
-90 -83 -86 -29 6 -129 28 -333 73 -95 21 -176 36 -181 33 -21 -15 -192 -388
-192 -419 0 -6 99 -81 221 -168 155 -110 219 -161 215 -171 -8 -20 -44 -161
-50 -198 -6 -32 -13 -65 -21 -105 -3 -14 -7 -42 -10 -64 -2 -21 -6 -40 -7 -41
-2 -2 -186 -41 -231 -49 -7 -1 -25 -5 -42 -9 -16 -4 -41 -9 -55 -11 -14 -3
-50 -10 -80 -16 -30 -6 -68 -13 -85 -16 -16 -3 -34 -9 -39 -15 -10 -9 -14
-454 -5 -463 4 -5 261 -60 369 -80 62 -11 161 -34 165 -38 4 -3 7 -21 20 -100
11 -65 35 -174 54 -247 18 -70 19 -76 3 -87 -9 -7 -108 -77 -219 -156 -111
-79 -203 -148 -203 -154 0 -28 165 -393 189 -417 7 -7 101 11 396 78 145 32
146 32 171 -13 26 -45 144 -202 191 -255 23 -25 32 -44 28 -55 -3 -9 -64 -115
-136 -235 -71 -119 -129 -220 -129 -223 0 -9 115 -117 210 -197 47 -40 91 -78
98 -85 25 -23 53 -34 65 -24 7 5 57 42 112 82 126 92 187 137 200 148 6 5 35
26 64 46 l52 37 63 -39 c77 -49 210 -122 223 -122 5 0 9 146 9 344 l0 344 -27
16 c-135 80 -407 360 -520 537 -74 115 -87 137 -136 239 -96 198 -163 426
-190 642 -10 80 -10 416 0 488 23 168 69 359 113 466 8 21 21 52 27 68 99 247
308 548 503 723 74 66 189 159 214 173 13 7 15 55 16 354 0 190 -2 346 -4 346
-8 0 -177 -93 -229 -126 -28 -19 -57 -34 -63 -34 -6 0 -63 39 -128 87 -212
157 -297 219 -307 225 -6 4 -35 -14 -65 -38z"/>
<path d="M6790 2070 c0 -3 11 -21 25 -40 14 -19 25 -39 25 -45 0 -6 -17 -33
-37 -61 -21 -28 -93 -126 -161 -218 l-123 -167 33 -42 c58 -76 185 -221 236
-271 l50 -48 174 102 c95 56 189 112 208 124 89 54 78 56 171 -20 47 -38 124
-96 172 -128 61 -42 86 -64 82 -75 -5 -19 -22 -95 -29 -134 -2 -15 -7 -35 -10
-45 -3 -9 -7 -28 -10 -42 -2 -14 -12 -56 -21 -95 -9 -38 -20 -92 -26 -120 -5
-27 -12 -58 -15 -67 -4 -13 19 -28 103 -71 106 -52 303 -137 321 -137 5 0 77
97 161 215 84 118 155 216 159 219 4 2 59 -10 122 -26 63 -16 158 -36 210 -44
52 -8 95 -16 95 -17 2 -4 98 -483 103 -510 4 -25 8 -27 51 -28 69 -2 298 -2
367 0 l61 1 47 233 c26 127 49 239 51 247 2 8 4 24 4 36 1 18 14 23 128 44 70
12 166 33 213 45 47 13 88 21 92 19 4 -3 75 -101 159 -219 84 -118 156 -215
161 -215 17 0 222 88 327 139 92 46 102 54 98 74 -4 12 -29 126 -57 252 -28
127 -53 237 -55 246 -4 11 21 33 82 75 48 32 125 89 170 126 46 38 86 68 89
68 3 0 31 -15 62 -33 31 -19 135 -80 231 -137 l174 -102 77 78 c75 78 145 159
208 241 l33 42 -157 212 c-86 117 -158 219 -161 226 -3 8 1 21 8 31 15 18 39
59 39 66 0 2 -164 4 -365 4 l-364 -1 -88 -87 c-214 -213 -464 -374 -728 -470
-49 -18 -99 -36 -110 -41 -48 -19 -264 -64 -370 -77 -77 -9 -381 -9 -465 0
-122 13 -269 45 -382 82 -336 110 -580 259 -832 507 l-88 87 -364 -1 c-200 0
-364 -3 -364 -7z"/>
</g>
</svg>
